<?xml version="1.0" encoding="UTF-8" standalone="no"?>
<!-- Created with Inkscape (http://www.inkscape.org/) -->

<svg
   width="16"
   height="16"
   viewBox="0 0 4.2333333 4.2333335"
   version="1.1"
   id="svg5"
   inkscape:version="1.3 (0e150ed6c4, 2023-07-21)"
   sodipodi:docname="window-close-symbolic.svg"
   xmlns:inkscape="http://www.inkscape.org/namespaces/inkscape"
   xmlns:sodipodi="http://sodipodi.sourceforge.net/DTD/sodipodi-0.dtd"
   xmlns="http://www.w3.org/2000/svg"
   xmlns:svg="http://www.w3.org/2000/svg">
  <sodipodi:namedview
     id="namedview7"
     pagecolor="#ffffff"
     bordercolor="#666666"
     borderopacity="1.0"
     inkscape:pageshadow="2"
     inkscape:pageopacity="0.0"
     inkscape:pagecheckerboard="0"
     inkscape:document-units="mm"
     showgrid="false"
     units="px"
     showborder="true"
     inkscape:showpageshadow="false"
     inkscape:zoom="17.275421"
     inkscape:cx="13.371599"
     inkscape:cy="21.446655"
     inkscape:window-width="2560"
     inkscape:window-height="1371"
     inkscape:window-x="0"
     inkscape:window-y="32"
     inkscape:window-maximized="1"
     inkscape:current-layer="layer1"
     inkscape:snap-global="false"
     inkscape:deskcolor="#d1d1d1" />
  <defs
     id="defs2" />
  <g
     inkscape:label="Layer 1"
     inkscape:groupmode="layer"
     id="layer1">
    <circle
       style="fill:#ff267c;fill-opacity:0;stroke:none;stroke-width:0.295336;stroke-linecap:round;stop-color:#000000"
       id="path846"
       cx="3.4395833"
       cy="3.4395833"
       r="2.3812499" />
    <path
       d="M 2.1166663,-2.4166542e-8 A 1.905,1.905 0 0 0 0.21166626,1.905 c 0,0.64135 0.32384994,1.2319001 0.84666674,1.5811501 v 0.7471833 h 0.4233334 v -0.635 h 0.4233332 v 0.635 H 2.328333 v -0.635 h 0.4233338 v 0.635 h 0.4233331 v -0.7493 C 3.6978167,3.1347834 4.0216671,2.54 4.0216671,1.905 A 1.905,1.905 0 0 0 2.1166663,-2.4166542e-8 M 1.2699996,1.905 A 0.42333335,0.42333335 0 0 1 1.6933329,2.3283333 0.42333335,0.42333335 0 0 1 1.2699996,2.7516667 0.42333335,0.42333335 0 0 1 0.84666615,2.3283333 0.42333335,0.42333335 0 0 1 1.2699996,1.905 m 1.6933337,0 A 0.42333335,0.42333335 0 0 1 3.3866672,2.3283333 0.42333335,0.42333335 0 0 1 2.9633333,2.7516667 0.42333335,0.42333335 0 0 1 2.5399997,2.3283333 0.42333335,0.42333335 0 0 1 2.9633333,1.905 M 2.1166663,2.54 2.4341664,3.1750001 h -0.635 z"
       id="path822"
       style="fill:#ff267c;fill-opacity:1;stroke-width:0.211668" />
  </g>
</svg>
